#Comment line ignore any data following # character 
#Hierarchical Translation and Rotation (.htr) file 
[Header]	
#Header keywords are followed by a single value 
FileType HTR		#Single word string
DataType HTRS		#Translation followed by rotation and scale data
FileVersion 1		#integer
NumSegments 84		#integer
NumFrames 2		#integer
DataFrameRate 30		#integer, data frame rate in this file
EulerRotationOrder ZYX
CalibrationUnits mm
RotationUnits Degrees
GlobalAxisofGravity Y
BoneLengthAxis Y
ScaleFactor 1.00
[SegmentNames&Hierarchy]
#CHILD	PARENT
MASTER GLOBAL
root MASTER
chest root
L_mid_tent01 root
R_mid_tent01 root
spine01 root
Bip01_Neck chest
L_humerus chest
R_humerus chest
weapon_bone chest
Bip01_Head Bip01_Neck
eye_left_bone Bip01_Head
eye_right_bone Bip01_Head
L_forearm L_humerus
L_front_hand L_forearm
L_weapon_bone L_forearm
L_front_hand01_01 L_front_hand
L_front_hand02_01 L_front_hand
L_front_hand03_01 L_front_hand
L_front_hand01_02 L_front_hand01_01
L_front_hand02_02 L_front_hand02_01
L_front_hand03_02 L_front_hand03_01
R_forearm R_humerus
R_front_hand R_forearm
R_weapon_bone R_forearm
R_front_hand01_01 R_front_hand
R_front_hand02_01 R_front_hand
R_front_hand03_01 R_front_hand
R_front_hand01_02 R_front_hand01_01
R_front_hand02_02 R_front_hand02_01
R_front_hand03_02 R_front_hand03_01
null_rope01_connect L_mid_tent01
Rope1_Seg01 null_rope01_connect
Rope1_Seg02 Rope1_Seg01
Rope1_Seg03 Rope1_Seg02
Rope1_Seg04 Rope1_Seg03
Rope1_Seg05 Rope1_Seg04
Rope1_Seg06 Rope1_Seg05
Rope1_Seg07 Rope1_Seg06
Rope1_Seg09 Rope1_Seg07
L_mid_hand01 Rope1_Seg09
L_mid_hand02 Rope1_Seg09
L_mid_hand03 Rope1_Seg09
null_rope02_connect R_mid_tent01
Rope2_Seg01 null_rope02_connect
Rope2_Seg02 Rope2_Seg01
Rope2_Seg03 Rope2_Seg02
Rope2_Seg04 Rope2_Seg03
Rope2_Seg05 Rope2_Seg04
Rope2_Seg06 Rope2_Seg05
Rope2_Seg07 Rope2_Seg06
Rope2_Seg09 Rope2_Seg07
R_mid_hand01 Rope2_Seg09
R_mid_hand02 Rope2_Seg09
R_mid_hand03 Rope2_Seg09
spine02 spine01
spine03 spine02
pelvis spine03
null_rope03_connect pelvis
null_rope04_connect pelvis
Rope3_Seg01 null_rope03_connect
Rope3_Seg02 Rope3_Seg01
Rope3_Seg03 Rope3_Seg02
Rope3_Seg04 Rope3_Seg03
Rope3_Seg05 Rope3_Seg04
Rope3_Seg06 Rope3_Seg05
Rope3_Seg07 Rope3_Seg06
Rope3_Seg08 Rope3_Seg07
Rope3_Seg09 Rope3_Seg08
R_rear_hand01 Rope3_Seg09
R_rear_hand02 Rope3_Seg09
R_rear_hand03 Rope3_Seg09
Rope4_Seg01 null_rope04_connect
Rope4_Seg02 Rope4_Seg01
Rope4_Seg03 Rope4_Seg02
Rope4_Seg04 Rope4_Seg03
Rope4_Seg05 Rope4_Seg04
Rope4_Seg06 Rope4_Seg05
Rope4_Seg07 Rope4_Seg06
Rope4_Seg08 Rope4_Seg07
Rope4_Seg09 Rope4_Seg08
L_rear_hand01 Rope4_Seg09
L_rear_hand02 Rope4_Seg09
L_rear_hand03 Rope4_Seg09
[BasePosition]
#SegmentName Tx, Ty, Tz, Rx, Ry, Rz, BoneLength
MASTER 0.000000 0.000000 0.000000 -90.000000 0.000000 0.000000 10.000000 
root 0.000000 0.000000 0.000000 0.000000 0.000000 0.000000 10.000000 
chest 0.000000 0.000000 0.000000 0.000000 0.000000 0.000000 10.000000 
L_mid_tent01 0.000000 0.000000 0.000000 0.000000 0.000000 0.000000 10.000000 
R_mid_tent01 0.000000 0.000000 0.000000 0.000000 0.000000 0.000000 10.000000 
spine01 0.000000 0.000000 0.000000 0.000000 0.000000 0.000000 10.000000 
Bip01_Neck 0.000000 0.000000 0.000000 0.000000 0.000000 0.000000 10.000000 
L_humerus 0.000000 0.000000 0.000000 0.000000 0.000000 0.000000 10.000000 
R_humerus 0.000000 0.000000 0.000000 0.000000 0.000000 0.000000 10.000000 
weapon_bone 0.000000 0.000000 0.000000 0.000000 0.000000 0.000000 10.000000 
Bip01_Head 0.000000 0.000000 0.000000 0.000000 0.000000 0.000000 10.000000 
eye_left_bone 0.000000 0.000000 0.000000 0.000000 0.000000 0.000000 10.000000 
eye_right_bone 0.000000 0.000000 0.000000 0.000000 0.000000 0.000000 10.000000 
L_forearm 0.000000 0.000000 0.000000 0.000000 0.000000 0.000000 10.000000 
L_front_hand 0.000000 0.000000 0.000000 0.000000 0.000000 0.000000 10.000000 
L_weapon_bone 0.000000 0.000000 0.000000 0.000000 0.000000 0.000000 10.000000 
L_front_hand01_01 0.000000 0.000000 0.000000 0.000000 0.000000 0.000000 10.000000 
L_front_hand02_01 0.000000 0.000000 0.000000 0.000000 0.000000 0.000000 10.000000 
L_front_hand03_01 0.000000 0.000000 0.000000 0.000000 0.000000 0.000000 10.000000 
L_front_hand01_02 0.000000 0.000000 0.000000 0.000000 0.000000 0.000000 10.000000 
L_front_hand02_02 0.000000 0.000000 0.000000 0.000000 0.000000 0.000000 10.000000 
L_front_hand03_02 0.000000 0.000000 0.000000 0.000000 0.000000 0.000000 10.000000 
R_forearm 0.000000 0.000000 0.000000 0.000000 0.000000 0.000000 10.000000 
R_front_hand 0.000000 0.000000 0.000000 0.000000 0.000000 0.000000 10.000000 
R_weapon_bone 0.000000 0.000000 0.000000 0.000000 0.000000 0.000000 10.000000 
R_front_hand01_01 0.000000 0.000000 0.000000 0.000000 0.000000 0.000000 10.000000 
R_front_hand02_01 0.000000 0.000000 0.000000 0.000000 0.000000 0.000000 10.000000 
R_front_hand03_01 0.000000 0.000000 0.000000 0.000000 0.000000 0.000000 10.000000 
R_front_hand01_02 0.000000 0.000000 0.000000 0.000000 0.000000 0.000000 10.000000 
R_front_hand02_02 0.000000 0.000000 0.000000 0.000000 0.000000 0.000000 10.000000 
R_front_hand03_02 0.000000 0.000000 0.000000 0.000000 0.000000 0.000000 10.000000 
null_rope01_connect 0.000000 0.000000 0.000000 0.000000 0.000000 0.000000 10.000000 
Rope1_Seg01 0.000000 0.000000 0.000000 0.000000 0.000000 0.000000 10.000000 
Rope1_Seg02 0.000000 0.000000 0.000000 0.000000 0.000000 0.000000 10.000000 
Rope1_Seg03 0.000000 0.000000 0.000000 0.000000 0.000000 0.000000 10.000000 
Rope1_Seg04 0.000000 0.000000 0.000000 0.000000 0.000000 0.000000 10.000000 
Rope1_Seg05 0.000000 0.000000 0.000000 0.000000 0.000000 0.000000 10.000000 
Rope1_Seg06 0.000000 0.000000 0.000000 0.000000 0.000000 0.000000 10.000000 
Rope1_Seg07 0.000000 0.000000 0.000000 0.000000 0.000000 0.000000 10.000000 
Rope1_Seg09 0.000000 0.000000 0.000000 0.000000 0.000000 0.000000 10.000000 
L_mid_hand01 0.000000 0.000000 0.000000 0.000000 0.000000 0.000000 10.000000 
L_mid_hand02 0.000000 0.000000 0.000000 0.000000 0.000000 0.000000 10.000000 
L_mid_hand03 0.000000 0.000000 0.000000 0.000000 0.000000 0.000000 10.000000 
null_rope02_connect 0.000000 0.000000 0.000000 0.000000 0.000000 0.000000 10.000000 
Rope2_Seg01 0.000000 0.000000 0.000000 0.000000 0.000000 0.000000 10.000000 
Rope2_Seg02 0.000000 0.000000 0.000000 0.000000 0.000000 0.000000 10.000000 
Rope2_Seg03 0.000000 0.000000 0.000000 0.000000 0.000000 0.000000 10.000000 
Rope2_Seg04 0.000000 0.000000 0.000000 0.000000 0.000000 0.000000 10.000000 
Rope2_Seg05 0.000000 0.000000 0.000000 0.000000 0.000000 0.000000 10.000000 
Rope2_Seg06 0.000000 0.000000 0.000000 0.000000 0.000000 0.000000 10.000000 
Rope2_Seg07 0.000000 0.000000 0.000000 0.000000 0.000000 0.000000 10.000000 
Rope2_Seg09 0.000000 0.000000 0.000000 0.000000 0.000000 0.000000 10.000000 
R_mid_hand01 0.000000 0.000000 0.000000 0.000000 0.000000 0.000000 10.000000 
R_mid_hand02 0.000000 0.000000 0.000000 0.000000 0.000000 0.000000 10.000000 
R_mid_hand03 0.000000 0.000000 0.000000 0.000000 0.000000 0.000000 10.000000 
spine02 0.000000 0.000000 0.000000 0.000000 0.000000 0.000000 10.000000 
spine03 0.000000 0.000000 0.000000 0.000000 0.000000 0.000000 10.000000 
pelvis 0.000000 0.000000 0.000000 0.000000 0.000000 0.000000 10.000000 
null_rope03_connect 0.000000 0.000000 0.000000 0.000000 0.000000 0.000000 10.000000 
null_rope04_connect 0.000000 0.000000 0.000000 0.000000 0.000000 0.000000 10.000000 
Rope3_Seg01 0.000000 0.000000 0.000000 0.000000 0.000000 0.000000 10.000000 
Rope3_Seg02 0.000000 0.000000 0.000000 0.000000 0.000000 0.000000 10.000000 
Rope3_Seg03 0.000000 0.000000 0.000000 0.000000 0.000000 0.000000 10.000000 
Rope3_Seg04 0.000000 0.000000 0.000000 0.000000 0.000000 0.000000 10.000000 
Rope3_Seg05 0.000000 0.000000 0.000000 0.000000 0.000000 0.000000 10.000000 
Rope3_Seg06 0.000000 0.000000 0.000000 0.000000 0.000000 0.000000 10.000000 
Rope3_Seg07 0.000000 0.000000 0.000000 0.000000 0.000000 0.000000 10.000000 
Rope3_Seg08 0.000000 0.000000 0.000000 0.000000 0.000000 0.000000 10.000000 
Rope3_Seg09 0.000000 0.000000 0.000000 0.000000 0.000000 0.000000 10.000000 
R_rear_hand01 0.000000 0.000000 0.000000 0.000000 0.000000 0.000000 10.000000 
R_rear_hand02 0.000000 0.000000 0.000000 0.000000 0.000000 0.000000 10.000000 
R_rear_hand03 0.000000 0.000000 0.000000 0.000000 0.000000 0.000000 10.000000 
Rope4_Seg01 0.000000 0.000000 0.000000 0.000000 0.000000 0.000000 10.000000 
Rope4_Seg02 0.000000 0.000000 0.000000 0.000000 0.000000 0.000000 10.000000 
Rope4_Seg03 0.000000 0.000000 0.000000 0.000000 0.000000 0.000000 10.000000 
Rope4_Seg04 0.000000 0.000000 0.000000 0.000000 0.000000 0.000000 10.000000 
Rope4_Seg05 0.000000 0.000000 0.000000 0.000000 0.000000 0.000000 10.000000 
Rope4_Seg06 0.000000 0.000000 0.000000 0.000000 0.000000 0.000000 10.000000 
Rope4_Seg07 0.000000 0.000000 0.000000 0.000000 0.000000 0.000000 10.000000 
Rope4_Seg08 0.000000 0.000000 0.000000 0.000000 0.000000 0.000000 10.000000 
Rope4_Seg09 0.000000 0.000000 0.000000 0.000000 0.000000 0.000000 10.000000 
L_rear_hand01 0.000000 0.000000 0.000000 0.000000 0.000000 0.000000 10.000000 
L_rear_hand02 0.000000 0.000000 0.000000 0.000000 0.000000 0.000000 10.000000 
L_rear_hand03 0.000000 0.000000 0.000000 0.000000 0.000000 0.000000 10.000000 
#Beginning of Data. Separated by tabs
#Fr	Tx	Ty	Tz	Rx	Ry	Rz	SF
[MASTER]
44 0.000000 0.000000 0.000000 0.001660 0.001660 0.001660 0.000000
45 0.000000 0.000000 0.000000 0.001660 0.001660 0.001660 0.000000
[root]
44 -16.502291 -62.822117 1664.784546 -91.629730 -27.676086 -90.148132 1666.051147
45 -16.502291 -62.822117 1651.900024 -91.629700 -27.676081 -90.148109 1653.176636
[chest]
44 -84.512650 -34.090519 0.000000 -1.741308 0.347381 -175.277008 91.129311
45 -84.512650 -34.090519 0.000000 -1.918096 0.392429 -177.148956 91.129311
[L_mid_tent01]
44 27.299616 22.177500 -249.918015 6.465925 38.955833 84.625961 252.380905
45 27.299610 22.177507 -249.918015 6.161989 38.658264 84.242950 252.380905
[R_mid_tent01]
44 23.228794 24.509907 226.238495 156.032547 -49.655407 92.609886 228.744751
45 23.228794 24.509907 226.238495 156.548111 -49.379398 92.060051 228.744751
[spine01]
44 -0.361383 -0.195265 0.000000 0.001885 0.001398 16.877943 0.410763
45 -0.361383 -0.195265 0.000000 0.001883 0.001401 16.719030 0.410763
[Bip01_Neck]
44 165.484543 71.581718 0.000119 175.896118 1.177290 24.871183 180.302734
45 165.484543 71.581718 0.000119 175.896118 1.177290 24.871183 180.302734
[L_humerus]
44 -13.983130 -135.272980 -120.471481 177.326691 15.782983 -117.837311 181.680161
45 -13.983130 -135.272980 -120.471481 175.087906 19.894478 -117.112000 181.680161
[R_humerus]
44 -13.983309 -135.273102 125.287651 -177.501541 -7.885715 -118.990257 184.909012
45 -13.983309 -135.273102 125.287651 -175.633972 -14.284952 -116.308510 184.909012
[weapon_bone]
44 235.964890 -300.705902 0.000000 0.000000 -89.951546 -128.212341 382.234833
45 235.964890 -300.705902 0.000000 0.000000 -89.951546 -128.212341 382.234833
[Bip01_Head]
44 129.594055 150.988754 14.345662 1.849065 3.705309 -22.800453 199.494415
45 138.698059 185.421555 16.763376 1.497598 3.783672 -23.714781 232.162262
[eye_left_bone]
44 -24.626970 125.451866 -64.772606 0.000000 -90.000000 -99.840431 143.318359
45 -24.626970 125.451866 -64.772606 0.000000 -90.000000 -99.840431 143.318359
[eye_right_bone]
44 -24.626970 125.451866 64.327362 0.000000 -89.960434 80.159386 143.117676
45 -24.626970 125.451866 64.327362 0.000000 -89.960434 80.159386 143.117676
[L_forearm]
44 322.776093 0.000000 -0.000119 0.000433 0.002307 -68.748367 322.776093
45 322.776093 0.000000 -0.000119 0.000408 0.002311 -69.969231 322.776093
[L_front_hand]
44 241.149185 -0.042021 -3.300071 -179.669357 -2.242812 0.207822 241.171753
45 241.149185 -0.042021 -3.300071 -179.578690 -2.229729 -2.158550 241.171753
[L_weapon_bone]
44 156.183838 0.000000 0.000000 0.001733 0.001584 5.141923 156.183838
45 156.183838 0.000000 0.000000 0.001719 0.001599 4.142072 156.183838
[L_front_hand01_01]
44 86.095154 20.947098 -0.655860 -0.366594 -0.477154 75.385574 88.609184
45 86.095154 20.947098 -0.655860 -0.366594 -0.477154 75.385574 88.609184
[L_front_hand02_01]
44 86.935165 -11.437475 24.513514 154.403488 -59.888916 -61.371967 91.046425
45 86.935165 -11.437475 24.513514 154.403519 -59.888931 -61.371990 91.046425
[L_front_hand03_01]
44 86.637497 -14.123976 -20.424902 -153.913849 58.118130 -62.702866 90.126129
45 86.637497 -14.123976 -20.424902 -153.913849 58.118122 -62.702866 90.126129
[L_front_hand01_02]
44 71.020905 -0.000179 0.000030 0.001534 0.001777 -8.378850 71.020905
45 71.020905 -0.000179 0.000030 0.001534 0.001777 -8.378851 71.020905
[L_front_hand02_02]
44 71.020927 -0.000119 0.000060 0.001534 0.001777 -8.378850 71.020927
45 71.020927 -0.000119 0.000060 0.001534 0.001777 -8.378851 71.020927
[L_front_hand03_02]
44 71.020905 -0.000060 0.000060 0.001534 0.001777 -8.378850 71.020905
45 71.020905 -0.000060 0.000060 0.001534 0.001777 -8.378851 71.020905
[R_forearm]
44 322.776428 -0.000060 0.000030 0.184423 -0.100011 -62.666275 322.776428
45 322.776428 -0.000060 0.000030 0.182942 -0.103972 -61.613483 322.776428
[R_front_hand]
44 238.847015 -0.006795 2.210259 -0.833138 1.514394 -17.583021 238.857239
45 238.847015 -0.006795 2.210259 -0.930462 1.456577 -21.337891 238.857239
[R_weapon_bone]
44 155.664093 0.002503 -0.000030 0.003454 0.001271 -94.008354 155.664078
45 155.664093 0.002503 -0.000030 0.003461 0.001253 -93.405052 155.664078
[R_front_hand01_01]
44 87.624611 14.231146 22.918642 -154.633484 -59.950619 61.746037 91.683487
45 87.624611 14.231146 22.918642 -154.633499 -59.950619 61.746044 91.683487
[R_front_hand02_01]
44 89.356956 14.367283 -19.491137 154.602661 58.302864 63.744381 92.579636
45 89.356956 14.367283 -19.491137 154.602661 58.302849 63.744389 92.579636
[R_front_hand03_01]
44 87.286232 -22.307278 -0.143439 0.162155 -0.423168 -75.767906 90.091743
45 87.286232 -22.307278 -0.143439 0.162155 -0.423168 -75.767921 90.091743
[R_front_hand01_02]
44 71.020905 0.000060 0.000119 0.001777 0.001534 8.377220 71.020905
45 71.020905 0.000060 0.000119 0.001777 0.001534 8.377220 71.020905
[R_front_hand02_02]
44 71.020844 -0.000030 -0.000119 0.001777 0.001534 8.377220 71.020836
45 71.020844 -0.000030 -0.000119 0.001777 0.001534 8.377220 71.020836
[R_front_hand03_02]
44 71.020905 0.000000 0.000030 0.001777 0.001534 8.377220 71.020905
45 71.020905 0.000000 0.000030 0.001777 0.001534 8.377220 71.020905
[null_rope01_connect]
44 328.732483 0.000000 -0.000238 -137.110382 -48.927341 172.569534 328.732483
45 328.732483 0.000000 -0.000238 -137.151901 -49.260647 172.861237 328.732483
[Rope1_Seg01]
44 0.000000 0.000000 0.000000 108.343384 46.980865 131.217636 0.000000
45 0.000000 0.000000 0.000000 108.287537 46.616539 131.179459 0.000000
[Rope1_Seg02]
44 139.999863 -0.000179 0.000000 0.122647 -6.606842 1.594758 139.999863
45 139.999863 -0.000179 0.000000 0.092341 -6.745394 1.740195 139.999863
[Rope1_Seg03]
44 139.999924 0.000060 -0.000060 -0.610774 -10.290079 2.057968 139.999924
45 139.999924 0.000060 -0.000060 -0.689860 -10.511732 2.171115 139.999924
[Rope1_Seg04]
44 139.999924 -0.000060 -0.000119 -3.364586 -18.805101 -2.415295 139.999924
45 139.999924 -0.000060 -0.000119 -3.715662 -19.057867 -1.642384 139.999924
[Rope1_Seg05]
44 139.999832 0.000119 -0.000060 -1.696879 -15.558432 20.821972 139.999832
45 139.999832 0.000119 -0.000060 -1.210006 -15.028057 20.837130 139.999832
[Rope1_Seg06]
44 139.999954 0.000119 -0.000060 6.923039 -4.496154 13.113266 139.999954
45 139.999954 0.000119 -0.000060 6.490695 -4.318603 12.258551 139.999954
[Rope1_Seg07]
44 139.999985 0.000060 0.000000 3.050484 -2.249799 5.129432 139.999985
45 139.999985 0.000060 0.000000 2.867449 -2.216423 4.925590 139.999985
[Rope1_Seg09]
44 121.602913 0.000119 -0.000089 -89.793175 -1.359789 0.847147 121.602913
45 121.602913 0.000119 -0.000089 -89.793175 -1.359789 0.847147 121.602913
[L_mid_hand01]
44 103.859421 1.038730 8.195221 130.544357 -67.584518 -38.866943 104.187431
45 103.859421 1.038730 8.195221 130.544373 -67.584534 -38.866943 104.187431
[L_mid_hand02]
44 105.572853 -4.139662 -10.864139 -168.923172 43.409309 -73.498886 106.211075
45 105.572853 -4.139662 -10.864139 -168.923172 43.409309 -73.498886 106.211075
[L_mid_hand03]
44 104.641464 17.579376 -3.913581 -6.012626 17.808172 74.893661 106.179977
45 104.641464 17.579376 -3.913581 -6.012627 17.808174 74.893669 106.179977
[null_rope02_connect]
44 328.732849 0.000179 -0.000119 -124.170494 37.828941 19.882383 328.732849
45 328.732849 0.000179 -0.000119 -124.112762 38.233822 19.701590 328.732849
[Rope2_Seg01]
44 0.000076 0.000112 0.000153 -55.817482 58.710728 47.311241 0.000204
45 0.000076 0.000112 0.000153 -55.233055 57.562862 47.635731 0.000204
[Rope2_Seg02]
44 139.999741 -0.000060 -0.000119 0.513686 -5.366704 0.061763 139.999756
45 139.999741 -0.000060 -0.000119 0.461903 -5.466311 0.212330 139.999756
[Rope2_Seg03]
44 140.000107 0.000030 0.000000 0.420869 -8.250352 0.100236 140.000107
45 140.000107 0.000030 0.000000 0.352061 -8.231071 0.298644 140.000107
[Rope2_Seg04]
44 139.999802 0.000000 -0.000060 -0.113416 -12.970456 -1.045651 139.999802
45 139.999802 0.000000 -0.000060 -0.245597 -13.149066 -0.403119 139.999802
[Rope2_Seg05]
44 139.999985 -0.000060 0.000119 -4.406569 -27.620163 5.092020 139.999985
45 139.999985 -0.000060 0.000119 -4.405391 -27.132730 5.195086 139.999985
[Rope2_Seg06]
44 139.999893 -0.000030 -0.000119 -2.323059 -9.568177 1.680387 139.999893
45 139.999893 -0.000030 -0.000119 -2.347683 -9.228799 1.501376 139.999893
[Rope2_Seg07]
44 139.999893 0.000060 -0.000060 -1.621535 -4.351548 0.385005 139.999893
45 139.999893 0.000060 -0.000060 -1.600743 -4.257793 0.368046 139.999893
[Rope2_Seg09]
44 121.338966 0.000089 -0.000060 33.793236 -1.359788 -0.847141 121.338966
45 121.338966 0.000089 -0.000060 33.793236 -1.359788 -0.847141 121.338966
[R_mid_hand01]
44 104.680779 11.144459 -10.335981 -16.212061 45.237240 70.462852 105.778534
45 104.680779 11.144459 -10.335981 -16.212063 45.237247 70.462852 105.778534
[R_mid_hand02]
44 104.070427 2.443552 8.231699 49.067368 -67.749771 39.286453 104.424065
45 104.070427 2.443552 8.231699 49.067368 -67.749771 39.286453 104.424065
[R_mid_hand03]
44 106.028137 -11.221827 -5.996406 -177.101105 15.551026 -76.585571 106.788818
45 106.028137 -11.221827 -5.996406 -177.101105 15.551026 -76.585571 106.788818
[spine02]
44 129.756927 0.001550 0.000119 -0.617126 -4.023155 0.849803 129.756927
45 129.756927 0.001550 0.000119 -0.578493 -4.028386 0.313966 129.756927
[spine03]
44 78.729034 0.067215 -3.773860 -0.042813 4.382864 -9.966132 78.819458
45 78.716225 0.069445 -3.898853 0.014681 4.375323 -9.258056 78.812752
[pelvis]
44 169.435242 0.051022 0.000000 -1.383249 -0.893218 1.263842 169.435257
45 169.435242 0.051022 0.000000 -1.218060 -0.813309 0.884121 169.435257
[null_rope03_connect]
44 -1.257226 -2.466202 137.391083 -164.960129 -87.008537 -86.384209 137.418976
45 -1.257226 -2.466202 137.391083 -163.524109 -87.221176 -87.422119 137.418976
[null_rope04_connect]
44 -1.259640 -2.480268 -137.844437 -164.960129 -87.008537 -86.384209 137.872513
45 -1.259640 -2.480268 -137.844437 -163.524109 -87.221176 -87.422119 137.872513
[Rope3_Seg01]
44 0.000070 0.000026 0.000000 -141.399307 -37.868549 -64.839111 0.000075
45 0.000070 0.000023 0.000000 -141.461670 -37.920723 -64.766792 0.000074
[Rope3_Seg02]
44 139.999924 -0.000119 0.000060 -22.104706 10.232227 -35.731628 139.999924
45 139.999924 -0.000119 0.000060 -22.219604 10.095810 -35.887745 139.999924
[Rope3_Seg03]
44 139.999924 -0.000119 0.000119 -54.636219 30.852068 -43.807671 139.999924
45 139.999924 -0.000119 0.000119 -54.899914 30.869825 -43.797661 139.999924
[Rope3_Seg04]
44 139.999924 0.000119 0.000000 -9.057488 15.785351 -3.350147 139.999924
45 139.999924 0.000119 0.000000 -9.548460 16.324202 -3.782542 139.999924
[Rope3_Seg05]
44 139.999924 -0.000238 0.000060 -10.808445 20.992979 -8.228101 139.999924
45 139.999924 -0.000238 0.000060 -11.639507 22.739111 -8.854548 139.999924
[Rope3_Seg06]
44 139.999893 -0.000119 -0.000060 -9.450452 31.534536 -8.825279 139.999893
45 139.999893 -0.000119 -0.000060 -8.173513 30.212143 -7.503892 139.999893
[Rope3_Seg07]
44 139.999771 0.000060 -0.000119 -0.353537 13.875778 -1.117510 139.999771
45 139.999771 0.000060 -0.000119 -0.163666 12.443830 -0.832071 139.999771
[Rope3_Seg08]
44 139.999985 -0.000060 0.000000 0.674303 6.491751 -0.455465 139.999985
45 139.999985 -0.000060 0.000000 0.665141 6.030602 -0.379321 139.999985
[Rope3_Seg09]
44 90.185997 -0.000179 -0.000060 89.793228 -1.359877 -0.847183 90.185997
45 90.185997 -0.000179 -0.000060 89.793228 -1.359877 -0.847183 90.185997
[R_rear_hand01]
44 103.366196 -6.073594 -10.757982 -169.738037 22.551714 -54.126846 104.101845
45 103.366196 -6.073594 -10.757982 -172.796265 23.654346 -61.910400 104.101845
[R_rear_hand02]
44 100.509819 12.039542 -7.992327 -24.598093 30.936235 51.337498 101.543350
45 100.509819 12.039542 -7.992327 -20.351442 33.712181 59.260250 101.543350
[R_rear_hand03]
44 101.539970 5.215704 5.435467 80.282860 -54.076118 11.757642 101.819031
45 101.539970 5.215704 5.435467 78.140221 -61.194939 14.290023 101.819031
[Rope4_Seg01]
44 0.000000 -0.000081 -0.000026 46.438782 -19.643717 -98.849884 0.000086
45 0.000000 -0.000085 -0.000023 46.544621 -19.625416 -99.190636 0.000088
[Rope4_Seg02]
44 139.999985 0.000060 0.000119 7.614562 -49.320038 16.285400 139.999985
45 139.999985 0.000060 0.000119 8.309669 -50.441788 16.480780 139.999985
[Rope4_Seg03]
44 139.999924 0.000000 -0.000238 38.404270 -46.693665 39.996494 139.999924
45 139.999924 0.000000 -0.000238 39.140575 -45.332451 39.002472 139.999924
[Rope4_Seg04]
44 139.999985 0.000000 0.000119 7.889999 -1.096245 10.192246 139.999985
45 139.999985 0.000000 0.000119 8.203912 -1.191838 10.503116 139.999985
[Rope4_Seg05]
44 139.999802 -0.000060 -0.000119 8.723655 -1.408169 13.702797 139.999802
45 139.999802 -0.000060 -0.000119 9.424297 -1.419969 15.035685 139.999802
[Rope4_Seg06]
44 139.999924 0.000000 0.000060 11.571030 0.483582 30.250286 139.999924
45 139.999924 0.000000 0.000060 11.414222 1.254087 31.452932 139.999924
[Rope4_Seg07]
44 139.999802 0.000000 0.000000 3.448475 4.998090 22.274061 139.999802
45 139.999802 0.000000 0.000000 2.725801 4.938870 19.955486 139.999802
[Rope4_Seg08]
44 139.999924 0.000000 0.000119 -1.627814 2.633710 9.196332 139.999924
45 139.999924 0.000000 0.000119 -1.667150 2.511291 8.492379 139.999924
[Rope4_Seg09]
44 90.185791 0.000060 0.000060 -135.617828 2.228885 0.850567 90.185791
45 90.185791 0.000060 0.000060 -135.617828 2.228885 0.850567 90.185791
[L_rear_hand01]
44 101.696655 -8.392275 -7.654577 -35.545914 -16.565580 155.228287 102.329041
45 101.696655 -8.392275 -7.654577 -30.544785 -25.098015 141.270386 102.329041
[L_rear_hand02]
44 102.726799 -1.568258 5.773216 83.657600 26.201982 173.326004 102.900848
45 102.726799 -1.568258 5.773216 82.379265 41.662415 171.055847 102.900848
[L_rear_hand03]
44 104.552910 9.721220 -10.420293 -160.270554 -15.106298 -154.590820 105.519653
45 104.552910 9.721220 -10.420293 -164.973923 -19.790249 -139.010162 105.519653
